<?xml version="1.0" encoding="UTF-8"?>
<svg version="1.1" xmlns="http://www.w3.org/2000/svg" width="300" height="300">
<path d="M0 0 C26.52299495 -1.71116096 51.58295426 12.60522847 71.0625 29.1875 C87.31385556 44.18473166 97.27509655 63.85974678 103 85 C103.268125 84.030625 103.53625 83.06125 103.8125 82.0625 C106.78630501 71.73223509 110.7970141 62.39844225 116 53 C116.54398438 52.01257813 117.08796875 51.02515625 117.6484375 50.0078125 C127.79623971 32.92980391 143.55851983 20.04523274 161 11 C161.90234375 10.52820313 162.8046875 10.05640625 163.734375 9.5703125 C174.94457744 4.10109252 188.33489205 -0.21542815 200.875 -0.0625 C201.84179688 -0.05347656 202.80859375 -0.04445313 203.8046875 -0.03515625 C204.52914062 -0.02355469 205.25359375 -0.01195313 206 0 C201.18767381 6.73725667 195.80719953 12.90423698 190.3671875 19.1328125 C187.35651374 22.58115377 184.38668497 26.0615216 181.4375 29.5625 C177.60922377 34.10600244 173.75088444 38.62205304 169.875 43.125 C164.8179979 49.00506376 159.87507466 54.96771064 155 61 C158.99491684 65.2690778 163.35519259 68.5742273 168.125 71.9375 C169.74281543 73.09156817 171.35998204 74.24654632 172.9765625 75.40234375 C174.22228027 76.29155518 174.22228027 76.29155518 175.49316406 77.19873047 C179.52342818 80.09464873 183.51116625 83.04741425 187.5 86 C193.66369172 90.55426583 199.84723217 95.07885582 206.0625 99.5625 C206.78880615 100.08690674 207.5151123 100.61131348 208.26342773 101.15161133 C212.19885871 103.99001859 216.14259146 106.81633795 220.09375 109.6328125 C220.92511475 110.22763428 221.75647949 110.82245605 222.61303711 111.43530273 C224.21548287 112.58159529 225.82037323 113.72448005 227.42797852 114.86352539 C228.50196899 115.63297485 228.50196899 115.63297485 229.59765625 116.41796875 C230.23195557 116.86938232 230.86625488 117.3207959 231.51977539 117.78588867 C233 119 233 119 234 121 C201 121 168 121 134 121 C133.01 124.96 132.02 128.92 131 133 C130.15816665 135.78742831 129.30018012 138.54713704 128.38037109 141.30712891 C128.13770004 142.04694 127.89502899 142.7867511 127.64500427 143.54898071 C126.85860096 145.94288698 126.06616801 148.33474483 125.2734375 150.7265625 C124.71928421 152.40845032 124.1654673 154.09044901 123.61196899 155.77255249 C122.45974806 159.27127536 121.30474699 162.76906262 120.14746094 166.26611328 C118.66274883 170.75273762 117.18321187 175.24104694 115.70548058 179.72997475 C114.56587652 183.19098814 113.42455872 186.65143423 112.28261185 190.11167526 C111.73607464 191.76782531 111.1898467 193.42407744 110.64393234 195.08043289 C109.88450472 197.38309449 109.12300528 199.68505978 108.36083984 201.98681641 C108.13537979 202.67142944 107.90991974 203.35604248 107.67762756 204.06140137 C106.11466215 208.7706757 106.11466215 208.7706757 105 211 C103.35 210.67 101.7 210.34 100 210 C95.44288581 196.07953437 90.88986508 182.15773841 86.34324646 168.23384094 C84.31482338 162.02238376 82.28362767 155.8118542 80.24772644 149.60284424 C79.21029861 146.43621956 78.17638927 143.26845595 77.14370728 140.10028076 C76.67454285 138.66345077 76.20382976 137.22712549 75.73153687 135.7913208 C75.08649963 133.82962479 74.4468461 131.86625576 73.80859375 129.90234375 C73.45595459 128.82460693 73.10331543 127.74687012 72.73999023 126.63647461 C72 124 72 124 72 121 C39 121 6 121 -28 121 C-22.37414966 115.37414966 -22.37414966 115.37414966 -18.98828125 112.90625 C-18.23998047 112.35775391 -17.49167969 111.80925781 -16.72070312 111.24414062 C-15.92599609 110.66857422 -15.13128906 110.09300781 -14.3125 109.5 C-13.05663086 108.58250977 -13.05663086 108.58250977 -11.77539062 107.64648438 C-5.45905751 103.0385509 0.88213017 98.46461351 7.22729492 93.89648438 C13.47025948 89.39768757 19.6643637 84.83463752 25.8527832 80.26123047 C34.18789175 74.1086532 42.58849088 68.04752996 51 62 C47.73319159 57.55150695 44.45080353 53.23429156 40.6875 49.1875 C37.59917897 45.80627664 34.62932742 42.37335629 31.75 38.8125 C28.14528691 34.36146297 24.44601722 30.00827145 20.6875 25.6875 C20.14150146 25.05908203 19.59550293 24.43066406 19.03295898 23.78320312 C16.78379717 21.19615609 14.53308183 18.61048907 12.27832031 16.02832031 C10.61919819 14.12635356 8.96543236 12.21984614 7.3125 10.3125 C6.8074292 9.73653076 6.3023584 9.16056152 5.78198242 8.56713867 C3.43674561 5.85383165 1.38482199 3.32843179 0 0 Z " fill="#FAA94D" transform="translate(47,74)"/>
<path d="M0 0 C1.093125 0.61875 2.18625 1.2375 3.3125 1.875 C7.47471752 0.70591691 11.00341021 -1.65939355 14.6875 -3.875 C33.6024366 -14.88096443 53.67912923 -19.32342532 75.4375 -19.25 C76.59121094 -19.25386719 77.74492187 -19.25773437 78.93359375 -19.26171875 C80.61001953 -19.25978516 80.61001953 -19.25978516 82.3203125 -19.2578125 C83.32723145 -19.25668457 84.33415039 -19.25555664 85.37158203 -19.25439453 C88.42140305 -19.12020848 91.31432832 -18.68649505 94.3125 -18.125 C93.9825 -17.465 93.6525 -16.805 93.3125 -16.125 C90.76956428 -15.46057499 88.25992141 -14.89739257 85.6875 -14.375 C66.01361348 -10.03060865 48.76775399 -0.90246783 33.3125 11.875 C32.56355469 12.47054687 31.81460938 13.06609375 31.04296875 13.6796875 C20.64057884 22.25601685 11.35900132 34.78199737 5.3125 46.875 C4.6525 46.875 3.9925 46.875 3.3125 46.875 C1.76194019 44.48392147 0.30814445 42.08522207 -1.125 39.625 C-4.93551039 33.26089376 -9.08001119 27.79012146 -14.28295898 22.50683594 C-17.6875 19.04133461 -17.6875 19.04133461 -17.6875 16.875 C-18.26757812 16.61847656 -18.84765625 16.36195312 -19.4453125 16.09765625 C-21.89472028 14.76200357 -23.55503726 13.24575692 -25.5625 11.3125 C-40.67836749 -2.30162821 -59.26332441 -9.97978716 -78.6875 -15.125 C-81.0237753 -15.78183349 -83.35561145 -16.45268928 -85.6875 -17.125 C-85.6875 -17.455 -85.6875 -17.785 -85.6875 -18.125 C-56.53512064 -23.4909304 -24.40715047 -16.79138548 0 0 Z " fill="#FBB052" transform="translate(145.6875,80.125)"/>
<path d="M0 0 C4.75982924 2.62772498 7.04616381 6.26349144 8.75 11.375 C9.17141936 16.8534517 8.424874 20.56022681 5.75 25.375 C1.65734272 29.46765728 -2.24680961 32.31069172 -8.1953125 32.40625 C-14.39511598 31.93478205 -18.33288298 29.44755894 -22.5625 24.875 C-25.52974408 20.47908285 -25.68990432 16.65385189 -25.25 11.375 C-23.34734418 5.55830934 -20.74593796 2.29837126 -15.25 -0.625 C-9.85269529 -2.42410157 -5.14951716 -2.31968904 0 0 Z " fill="#FAAD4F" transform="translate(158.25,32.625)"/>
<path d="M0 0 C10.23 0 20.46 0 31 0 C29.82644815 4.69420741 27.87292181 6.42409885 24 9 C19.18763806 11.3015644 15.07063434 11.39949508 10 10 C5.65834542 7.66218599 2.83020533 5.02759989 0 1 C0 0.67 0 0.34 0 0 Z " fill="#F3732A" transform="translate(134,54)"/>
<path d="M0 0 C0.99 0.33 1.98 0.66 3 1 C2.67 2.98 2.34 4.96 2 7 C1.34 7 0.68 7 0 7 C0 4.69 0 2.38 0 0 Z " fill="#F58220" transform="translate(0,278)"/>
</svg>
